<svg width="422" height="127" viewBox="0 0 422 127" fill="none" xmlns="http://www.w3.org/2000/svg">
    <g stroke-width="1" stroke="none" fill-rule="evenodd">

    <path d="M369.361 73.0547H346.769L341.642 87H337.232L356.065 37.2344H360.064L378.897 87H374.522L369.361 73.0547ZM348.067 69.4658H368.028L358.048 42.3613L348.067 69.4658Z" fill="#C95730"/>

    <path d="M420.016 40.8232H402.96V87H398.756V40.8232H381.734V37.2344H420.016V40.8232Z" fill="#C95731"/>
    <path d="M326.52 65.1387H295.709V90.334H331.5V98H286.334V26.9062H331.012V34.6211H295.709V57.4727H326.52V65.1387Z" fill="#C95739"/>
    
    <path d="M95.8691 74.0547H73.2764L68.1494 88H63.7402L82.5732 38.2344H86.5723L105.405 88H101.03L95.8691 74.0547ZM74.5752 70.4658H94.5361L84.5557 43.3613L74.5752 70.4658Z" fill="#F1DBC4"/>

    <path d="M116.992 84.4453H141.567V88H112.754V38.2344H116.992V84.4453Z" fill="#F1DBC5"/>

    <path d="M176.533 74.0547H153.94L148.813 88H144.404L163.237 38.2344H167.236L186.069 88H181.694L176.533 74.0547ZM155.239 70.4658H175.2L165.22 43.3613L155.239 70.4658Z" fill="#F1DBC6"/>

    <path d="M230.469 88H226.265L197.656 45.4121V88H193.418V38.2344H197.656L226.299 80.8564V38.2344H230.469V88Z" fill="#F1DBC7"/>

    <path d="M278.354 72.4824C277.785 77.7233 275.905 81.7337 272.715 84.5137C269.548 87.2936 265.321 88.6836 260.034 88.6836C256.343 88.6836 253.073 87.7607 250.225 85.915C247.399 84.0693 245.212 81.4603 243.662 78.0879C242.113 74.6927 241.326 70.819 241.304 66.4668V60.0068C241.304 55.5863 242.078 51.667 243.628 48.249C245.177 44.8311 247.399 42.1992 250.293 40.3535C253.21 38.485 256.559 37.5508 260.342 37.5508C265.674 37.5508 269.878 38.9977 272.954 41.8916C276.053 44.7627 277.853 48.7389 278.354 53.8203H274.116C273.068 45.3665 268.477 41.1396 260.342 41.1396C255.83 41.1396 252.23 42.8258 249.541 46.1982C246.875 49.5706 245.542 54.2305 245.542 60.1777V66.2617C245.542 72.0039 246.841 76.584 249.438 80.002C252.059 83.4199 255.591 85.1289 260.034 85.1289C264.432 85.1289 267.747 84.0807 269.98 81.9844C272.214 79.8652 273.592 76.6979 274.116 72.4824H278.354Z" fill="#F1DBC8"/>

    <path d="M9.09961 98V26.9062H32.3418C40.0566 26.9062 45.8509 28.5013 49.7246 31.6914C53.6309 34.8815 55.584 39.6016 55.584 45.8516C55.584 49.1719 54.64 52.1178 52.752 54.6895C50.8639 57.2285 48.2923 59.1979 45.0371 60.5977C48.8783 61.6719 51.9056 63.7227 54.1191 66.75C56.3652 69.7448 57.4883 73.3255 57.4883 77.4922C57.4883 83.8724 55.4212 88.8854 51.2871 92.5312C47.153 96.1771 41.3099 98 33.7578 98H9.09961ZM18.4746 64.748V90.334H33.9531C38.3151 90.334 41.7493 89.2109 44.2559 86.9648C46.7949 84.6862 48.0645 81.5612 48.0645 77.5898C48.0645 69.0286 43.4095 64.748 34.0996 64.748H18.4746ZM18.4746 57.2285H32.6348C36.7363 57.2285 40.0078 56.2031 42.4492 54.1523C44.9232 52.1016 46.1602 49.3184 46.1602 45.8027C46.1602 41.8965 45.0208 39.0645 42.7422 37.3066C40.4635 35.5163 36.9967 34.6211 32.3418 34.6211H18.4746V57.2285Z" fill="#F1DBC3"/>

    </g>
</svg>
