<svg width="42" height="37" viewBox="0 0 42 37" fill="none" xmlns="http://www.w3.org/2000/svg">
<path d="M37.25 19.2266H22.4609V31.3203H39.6406V35H17.9609V0.875H39.4062V4.57812H22.4609V15.5469H37.25V19.2266Z" fill="#C95739"/>
<path d="M2.96094 35V0.875H14.1172C17.8203 0.875 20.6016 1.64063 22.4609 3.17188C24.3359 4.70312 25.2734 6.96875 25.2734 9.96875C25.2734 11.5625 24.8203 12.9766 23.9141 14.2109C23.0078 15.4297 21.7734 16.375 20.2109 17.0469C22.0547 17.5625 23.5078 18.5469 24.5703 20C25.6484 21.4375 26.1875 23.1562 26.1875 25.1562C26.1875 28.2188 25.1953 30.625 23.2109 32.375C21.2266 34.125 18.4219 35 14.7969 35H2.96094ZM7.46094 19.0391V31.3203H14.8906C16.9844 31.3203 18.6328 30.7812 19.8359 29.7031C21.0547 28.6094 21.6641 27.1094 21.6641 25.2031C21.6641 21.0938 19.4297 19.0391 14.9609 19.0391H7.46094ZM7.46094 15.4297H14.2578C16.2266 15.4297 17.7969 14.9375 18.9688 13.9531C20.1562 12.9688 20.75 11.6328 20.75 9.94531C20.75 8.07031 20.2031 6.71094 19.1094 5.86719C18.0156 5.00781 16.3516 4.57812 14.1172 4.57812H7.46094V15.4297Z" fill="#F1DBC3"/>
<path d="M2.96094 35H2.46094V35.5H2.96094V35ZM2.96094 0.875V0.375H2.46094V0.875H2.96094ZM22.4609 3.17188L22.1431 3.55784L22.1447 3.55914L22.4609 3.17188ZM23.9141 14.2109L24.3153 14.5093L24.3171 14.5068L23.9141 14.2109ZM20.2109 17.0469L20.0134 16.5875L18.7124 17.147L20.0763 17.5284L20.2109 17.0469ZM24.5703 20L24.1667 20.2951L24.1703 20.3L24.5703 20ZM7.46094 19.0391V18.5391H6.96094V19.0391H7.46094ZM7.46094 31.3203H6.96094V31.8203H7.46094V31.3203ZM19.8359 29.7031L20.1696 30.0755L20.1699 30.0752L19.8359 29.7031ZM7.46094 15.4297H6.96094V15.9297H7.46094V15.4297ZM18.9688 13.9531L18.6496 13.5682L18.6472 13.5703L18.9688 13.9531ZM19.1094 5.86719L18.8005 6.26036L18.804 6.26308L19.1094 5.86719ZM7.46094 4.57812V4.07812H6.96094V4.57812H7.46094ZM3.46094 35V0.875H2.46094V35H3.46094ZM2.96094 1.375H14.1172V0.375H2.96094V1.375ZM14.1172 1.375C17.7637 1.375 20.4103 2.13082 22.1431 3.55784L22.7788 2.78591C20.7929 1.15043 17.8769 0.375 14.1172 0.375V1.375ZM22.1447 3.55914C23.876 4.97306 24.7734 7.07952 24.7734 9.96875H25.7734C25.7734 6.85798 24.7959 4.43319 22.7772 2.78461L22.1447 3.55914ZM24.7734 9.96875C24.7734 11.4607 24.3516 12.7701 23.511 13.915L24.3171 14.5068C25.289 13.183 25.7734 11.6643 25.7734 9.96875H24.7734ZM23.5128 13.9126C22.6652 15.0525 21.5049 15.9462 20.0134 16.5875L20.4085 17.5062C22.0419 16.8038 23.3504 15.8069 24.3153 14.5093L23.5128 13.9126ZM20.0763 17.5284C21.8194 18.0159 23.1748 18.9385 24.1667 20.2951L24.9739 19.7049C23.8409 18.1552 22.29 17.1091 20.3456 16.5654L20.0763 17.5284ZM24.1703 20.3C25.1762 21.6412 25.6875 23.2516 25.6875 25.1562H26.6875C26.6875 23.0609 26.1207 21.2338 24.9703 19.7L24.1703 20.3ZM25.6875 25.1562C25.6875 28.1002 24.7396 30.3603 22.8802 32L23.5417 32.75C25.6511 30.8897 26.6875 28.3373 26.6875 25.1562H25.6875ZM22.8802 32C21.0162 33.6438 18.3454 34.5 14.7969 34.5V35.5C18.4984 35.5 21.4369 34.6062 23.5417 32.75L22.8802 32ZM14.7969 34.5H2.96094V35.5H14.7969V34.5ZM6.96094 19.0391V31.3203H7.96094V19.0391H6.96094ZM7.46094 31.8203H14.8906V30.8203H7.46094V31.8203ZM14.8906 31.8203C17.0701 31.8203 18.8503 31.2578 20.1696 30.0755L19.5023 29.3308C18.4153 30.3047 16.8986 30.8203 14.8906 30.8203V31.8203ZM20.1699 30.0752C21.512 28.8708 22.1641 27.2257 22.1641 25.2031H21.1641C21.1641 26.993 20.5974 28.348 19.502 29.331L20.1699 30.0752ZM22.1641 25.2031C22.1641 23.0601 21.5795 21.3641 20.3267 20.212C19.0819 19.0673 17.2625 18.5391 14.9609 18.5391V19.5391C17.1281 19.5391 18.6603 20.0382 19.6498 20.9481C20.6314 21.8508 21.1641 23.2368 21.1641 25.2031H22.1641ZM14.9609 18.5391H7.46094V19.5391H14.9609V18.5391ZM7.46094 15.9297H14.2578V14.9297H7.46094V15.9297ZM14.2578 15.9297C16.3098 15.9297 18.0052 15.4155 19.2903 14.336L18.6472 13.5703C17.5886 14.4595 16.1433 14.9297 14.2578 14.9297V15.9297ZM19.2878 14.3381C20.6016 13.249 21.25 11.7658 21.25 9.94531H20.25C20.25 11.4999 19.7109 12.6885 18.6497 13.5682L19.2878 14.3381ZM21.25 9.94531C21.25 7.9747 20.6716 6.44088 19.4148 5.4713L18.804 6.26308C19.7346 6.981 20.25 8.16593 20.25 9.94531H21.25ZM19.4183 5.47403C18.1971 4.51454 16.4004 4.07812 14.1172 4.07812V5.07812C16.3027 5.07812 17.8341 5.50108 18.8005 6.26035L19.4183 5.47403ZM14.1172 4.07812H7.46094V5.07812H14.1172V4.07812ZM6.96094 4.57812V15.4297H7.96094V4.57812H6.96094Z" fill="#C95739"/>
</svg>
